<svg xmlns="http://www.w3.org/2000/svg" width="103" height="118.63" viewBox="0 0 103 118.63">
  <path id="Icon_metro-fire" data-name="Icon metro-fire" d="M33.7,120.559C25.791,104.107,30,94.68,36.078,85.8a55.377,55.377,0,0,0,8.369-19.355s5.231,6.8,3.139,17.436c9.242-10.288,10.985-26.678,9.59-32.955,20.889,14.6,29.817,46.208,17.786,69.634,63.992-36.207,15.918-90.383,7.548-96.486,2.79,6.1,3.319,16.433-2.317,21.447C70.652,9.342,47.063,1.928,47.063,1.928c2.79,18.657-10.113,39.058-22.556,54.3-.437-7.439-.9-12.573-4.814-19.692-.878,13.515-11.206,24.531-14,38.072C1.9,92.947,8.528,106.374,33.7,120.559Z" transform="translate(-4.701 -1.928)"/>
</svg>
